<svg width="97" height="97" xmlns="http://www.w3.org/2000/svg" xmlns:xlink="http://www.w3.org/1999/xlink" xml:space="preserve" overflow="hidden"><g transform="translate(-732 -237)"><g><g><g><g><path d="M789.11 261.47C796.862 263.906 803.029 269.825 805.78 277.47L802.7 275.64C801.791 275.013 800.545 275.242 799.918 276.152 799.291 277.061 799.52 278.306 800.43 278.933 800.516 278.993 800.606 279.045 800.7 279.09L807.7 283.24C808.055 283.525 808.495 283.68 808.95 283.68L809 283.68 809.16 283.68 809.24 283.68 809.4 283.68C809.912 283.547 810.351 283.216 810.62 282.76L815 275.39C815.478 274.394 815.058 273.199 814.062 272.722 813.174 272.296 812.109 272.579 811.55 273.39L809.7 276.54C807.388 269.785 802.739 264.079 796.59 260.45 794.606 259.282 792.496 258.343 790.3 257.65 789.245 257.321 788.124 257.91 787.795 258.965 787.466 260.02 788.055 261.141 789.11 261.47Z" fill="#376092" fill-rule="nonzero" fill-opacity="1"/><path d="M752.14 293.16C752.354 294.064 753.161 294.702 754.09 294.7 754.245 294.699 754.4 294.679 754.55 294.64 755.607 294.37 756.252 293.302 756 292.24 754.476 285.699 755.551 278.823 759 273.06 759.799 271.708 760.716 270.43 761.74 269.24L761.8 269.3 761.8 272.96C761.8 274.065 762.695 274.96 763.8 274.96 764.905 274.96 765.8 274.065 765.8 272.96L765.88 264.48C765.88 263.375 764.985 262.48 763.88 262.48L755.39 262.4C754.285 262.4 753.39 263.295 753.39 264.4 753.39 265.505 754.285 266.4 755.39 266.4L758.94 266.4C757.65 267.821 756.498 269.361 755.5 271 751.543 277.669 750.338 285.617 752.14 293.16Z" fill="#376092" fill-rule="nonzero" fill-opacity="1"/><path d="M799.22 305.15C793.141 310.885 784.681 313.358 776.47 311.8L776.47 311.8 779.65 310C780.608 309.448 780.937 308.223 780.385 307.265 779.833 306.307 778.608 305.978 777.65 306.53L770.3 310.7C769.339 311.245 769.003 312.466 769.548 313.427 769.549 313.428 769.549 313.429 769.55 313.43L773.76 320.8C774.312 321.761 775.539 322.092 776.5 321.54 777.461 320.988 777.792 319.761 777.24 318.8L775.45 315.68C785.014 317.605 794.917 314.759 802 308.05 802.832 307.324 802.918 306.06 802.192 305.228 801.466 304.396 800.203 304.31 799.37 305.036 799.329 305.072 799.289 305.11 799.25 305.15Z" fill="#376092" fill-rule="nonzero" fill-opacity="1"/><path d="M767 303.64C767 308.058 763.418 311.64 759 311.64 754.582 311.64 751 308.058 751 303.64 751 299.222 754.582 295.64 759 295.64 763.418 295.64 767 299.222 767 303.64Z" fill="#376092" fill-rule="nonzero" fill-opacity="1"/><path d="M815.5 296.8C815.5 301.218 811.918 304.8 807.5 304.8 803.082 304.8 799.5 301.218 799.5 296.8 799.5 292.382 803.082 288.8 807.5 288.8 811.918 288.8 815.5 292.382 815.5 296.8Z" fill="#376092" fill-rule="nonzero" fill-opacity="1"/><path d="M785.75 258.61C785.75 263.028 782.168 266.61 777.75 266.61 773.332 266.61 769.75 263.028 769.75 258.61 769.75 254.192 773.332 250.61 777.75 250.61 782.168 250.61 785.75 254.192 785.75 258.61Z" fill="#376092" fill-rule="nonzero" fill-opacity="1"/></g></g></g></g></g></svg>