<svg width="98" height="96" xmlns="http://www.w3.org/2000/svg" xmlns:xlink="http://www.w3.org/1999/xlink" xml:space="preserve" overflow="hidden"><g transform="translate(-150 -240)"><g><g><g><g><path d="M199.005 265C186.303 265 176.005 275.297 176.005 288 176.005 300.703 186.303 311 199.005 311 211.708 311 222.005 300.703 222.005 288 221.991 275.303 211.702 265.014 199.005 265ZM195.735 297.364 185.712 287.34 189.118 283.934 195.735 290.551 209.287 277 212.693 280.406Z" fill="#FF9740" fill-rule="nonzero" fill-opacity="1"/><path d="M233.125 289.265C232.524 288.529 232.524 287.471 233.125 286.735L235.589 283.716C236.288 282.861 236.161 281.601 235.306 280.902 235.247 280.854 235.186 280.81 235.123 280.769L231.846 278.659C231.047 278.145 230.72 277.14 231.064 276.254L232.475 272.62C232.875 271.59 232.365 270.431 231.335 270.031 231.265 270.004 231.194 269.981 231.121 269.962L227.352 268.968C226.433 268.726 225.812 267.871 225.865 266.922L226.084 263.03C226.146 261.927 225.302 260.983 224.199 260.921 224.125 260.917 224.05 260.917 223.975 260.921L220.083 261.14C219.134 261.193 218.279 260.572 218.037 259.653L217.043 255.884C216.761 254.816 215.667 254.179 214.599 254.46 214.526 254.48 214.455 254.503 214.385 254.53L210.751 255.941C209.865 256.285 208.86 255.958 208.346 255.159L206.236 251.882C205.638 250.953 204.4 250.685 203.472 251.283 203.408 251.324 203.347 251.368 203.289 251.416L200.27 253.88C199.534 254.481 198.476 254.481 197.74 253.88L194.721 251.416C193.866 250.717 192.606 250.844 191.907 251.699 191.859 251.758 191.815 251.819 191.774 251.882L189.664 255.159C189.15 255.958 188.145 256.285 187.259 255.941L183.625 254.53C182.595 254.13 181.436 254.641 181.036 255.67 181.009 255.74 180.986 255.811 180.967 255.884L179.973 259.653C179.731 260.572 178.876 261.193 177.927 261.14L174.035 260.921C172.932 260.859 171.988 261.703 171.926 262.806 171.922 262.88 171.922 262.955 171.926 263.03L172.145 266.922C172.198 267.871 171.577 268.726 170.658 268.968L166.889 269.962C165.821 270.244 165.184 271.338 165.465 272.406 165.485 272.479 165.508 272.55 165.535 272.62L166.946 276.254C167.29 277.14 166.963 278.145 166.164 278.659L162.887 280.769C161.958 281.367 161.689 282.604 162.287 283.533 162.328 283.596 162.372 283.658 162.42 283.716L164.885 286.735C165.486 287.471 165.486 288.529 164.885 289.265L162.42 292.284C161.721 293.139 161.848 294.4 162.704 295.098 162.762 295.146 162.824 295.19 162.887 295.231L166.164 297.341C166.963 297.855 167.29 298.86 166.946 299.746L165.535 303.38C165.135 304.41 165.646 305.568 166.675 305.969 166.745 305.996 166.816 306.019 166.889 306.038L170.658 307.032C171.577 307.274 172.198 308.129 172.145 309.078L171.926 312.97C171.864 314.073 172.708 315.017 173.811 315.079 173.885 315.083 173.96 315.083 174.035 315.079L177.927 314.86C178.876 314.807 179.731 315.428 179.973 316.347L180.967 320.116C181.249 321.184 182.343 321.821 183.411 321.539 183.484 321.52 183.555 321.497 183.625 321.47L187.259 320.059C188.145 319.715 189.15 320.042 189.664 320.841L191.774 324.118C192.372 325.047 193.61 325.315 194.538 324.717 194.602 324.676 194.663 324.632 194.721 324.584L197.74 322.12C198.476 321.519 199.534 321.519 200.27 322.12L203.289 324.584C204.144 325.283 205.404 325.156 206.103 324.301 206.151 324.242 206.195 324.181 206.236 324.118L208.346 320.841C208.86 320.042 209.865 319.715 210.751 320.059L214.385 321.47C215.415 321.87 216.574 321.359 216.974 320.33 217.001 320.26 217.024 320.189 217.043 320.116L218.037 316.347C218.279 315.428 219.134 314.807 220.083 314.86L223.975 315.079C225.078 315.141 226.022 314.297 226.084 313.194 226.088 313.12 226.088 313.045 226.084 312.97L225.865 309.078C225.812 308.129 226.433 307.274 227.352 307.032L231.121 306.038C232.189 305.756 232.826 304.662 232.544 303.594 232.525 303.521 232.502 303.45 232.475 303.38L231.064 299.746C230.72 298.86 231.047 297.855 231.846 297.341L235.123 295.231C236.052 294.633 236.32 293.395 235.722 292.467 235.681 292.403 235.637 292.342 235.589 292.284ZM199.005 314C184.646 314 173.005 302.359 173.005 288 173.005 273.641 184.646 262 199.005 262 213.364 262 225.005 273.641 225.005 288 224.989 302.353 213.358 313.984 199.005 314Z" fill="#FF9740" fill-rule="nonzero" fill-opacity="1"/></g></g></g></g></g></svg>