<svg width="97" height="97" xmlns="http://www.w3.org/2000/svg" xmlns:xlink="http://www.w3.org/1999/xlink" xml:space="preserve" overflow="hidden"><g transform="translate(-441 -237)"><g><g><g><g><path d="M497.33 277.17 498.18 274.65 496.26 272.73 493.74 273.58C493.085 273.211 492.386 272.925 491.66 272.73L490.48 270.38 487.8 270.38 486.61 272.74C485.881 272.937 485.179 273.223 484.52 273.59L482 272.74 480.08 274.66 480.88 277.18C480.496 277.832 480.2 278.531 480 279.26L477.64 280.44 477.64 283.08 480 284.27C480.194 284.996 480.48 285.695 480.85 286.35L480 288.87 482 290.79 484.52 289.93C485.175 290.303 485.873 290.591 486.6 290.79L487.78 293.14 490.46 293.14 491.65 290.83C492.364 290.636 493.052 290.357 493.7 290L496.21 290.86 498.13 288.93 497.28 286.42C497.662 285.76 497.967 285.059 498.19 284.33L500.54 283.15 500.54 280.44 498.18 279.25C497.989 278.522 497.703 277.823 497.33 277.17ZM489.13 285.8C486.921 285.8 485.13 284.009 485.13 281.8 485.13 279.591 486.921 277.8 489.13 277.8 491.326 277.832 493.098 279.604 493.13 281.8 493.13 284.009 491.339 285.8 489.13 285.8Z" fill="#1EBCFF" fill-rule="nonzero" fill-opacity="1"/><path d="M497.72 312.79 480.51 312.79C478.917 312.884 477.701 314.252 477.795 315.845 477.881 317.307 479.048 318.474 480.51 318.56L497.72 318.56C499.313 318.466 500.529 317.098 500.435 315.505 500.349 314.043 499.182 312.876 497.72 312.79Z" fill="#1EBCFF" fill-rule="nonzero" fill-opacity="1"/><path d="M489.12 328.33C492.385 328.325 495.1 325.815 495.36 322.56L482.87 322.56C483.135 325.816 485.853 328.325 489.12 328.33Z" fill="#1EBCFF" fill-rule="nonzero" fill-opacity="1"/><path d="M514.09 282.47 514.09 281.61C513.835 267.96 502.742 257.004 489.09 256.92 475.438 257.004 464.345 267.96 464.09 281.61L464.09 282.47C464.181 285.43 464.77 288.354 465.83 291.12 466.842 293.729 468.312 296.137 470.17 298.23 472.46 300.72 474.96 305.57 476.02 307.73 476.344 308.383 477.011 308.794 477.74 308.79L500.44 308.79C501.169 308.794 501.836 308.383 502.16 307.73 503.22 305.57 505.72 300.73 508.01 298.23 509.868 296.137 511.338 293.729 512.35 291.12 513.41 288.354 513.999 285.43 514.09 282.47ZM508.33 282.38C508.259 284.678 507.81 286.948 507 289.1 506.241 291.038 505.144 292.825 503.76 294.38 501.54 297.022 499.637 299.915 498.09 303L480.09 303C478.56 299.907 476.674 297.004 474.47 294.35 473.086 292.795 471.989 291.008 471.23 289.07 470.403 286.921 469.937 284.651 469.85 282.35L469.85 281.63C470.029 271.13 478.559 262.694 489.06 262.63 499.561 262.694 508.091 271.13 508.27 281.63Z" fill="#1EBCFF" fill-rule="nonzero" fill-opacity="1"/><path d="M489.31 253C490.415 253 491.31 252.105 491.31 251L491.31 244C491.31 242.895 490.415 242 489.31 242 488.205 242 487.31 242.895 487.31 244L487.31 251C487.31 252.105 488.205 253 489.31 253Z" fill="#1EBCFF" fill-rule="nonzero" fill-opacity="1"/><path d="M465.58 261.79C466.36 262.565 467.62 262.565 468.4 261.79 469.175 261.01 469.175 259.75 468.4 258.97L463.45 254C462.63 253.26 461.366 253.324 460.625 254.144 459.936 254.908 459.938 256.069 460.63 256.83Z" fill="#1EBCFF" fill-rule="nonzero" fill-opacity="1"/><path d="M511.66 262.76C512.193 262.76 512.704 262.548 513.08 262.17L518.02 257.17C518.664 256.273 518.459 255.023 517.562 254.379 516.854 253.87 515.899 253.879 515.2 254.4L510.2 259.4C509.425 260.18 509.425 261.44 510.2 262.22 510.594 262.59 511.12 262.785 511.66 262.76Z" fill="#1EBCFF" fill-rule="nonzero" fill-opacity="1"/><path d="M458.25 279.5 451.25 279.5C450.145 279.5 449.25 280.395 449.25 281.5 449.25 282.605 450.145 283.5 451.25 283.5L458.25 283.5C459.355 283.5 460.25 282.605 460.25 281.5 460.25 280.395 459.355 279.5 458.25 279.5Z" fill="#1EBCFF" fill-rule="nonzero" fill-opacity="1"/><path d="M465.58 301.14 460.63 306.14C459.791 306.858 459.693 308.121 460.412 308.96 461.13 309.799 462.393 309.897 463.232 309.178 463.31 309.111 463.383 309.038 463.45 308.96L468.4 303.96C469.118 303.121 469.021 301.858 468.182 301.14 467.433 300.499 466.329 300.499 465.58 301.14Z" fill="#1EBCFF" fill-rule="nonzero" fill-opacity="1"/><path d="M513.08 300.76C512.34 299.94 511.075 299.876 510.255 300.616 509.435 301.356 509.371 302.621 510.111 303.441 510.155 303.489 510.202 303.536 510.25 303.58L515.25 308.58C515.957 309.429 517.218 309.544 518.067 308.837 518.916 308.13 519.03 306.869 518.323 306.02 518.227 305.905 518.119 305.801 518 305.71Z" fill="#1EBCFF" fill-rule="nonzero" fill-opacity="1"/><path d="M527 279.43 520 279.43C518.895 279.43 518 280.325 518 281.43 518 282.535 518.895 283.43 520 283.43L527 283.43C528.105 283.43 529 282.535 529 281.43 529 280.325 528.105 279.43 527 279.43Z" fill="#1EBCFF" fill-rule="nonzero" fill-opacity="1"/></g></g></g></g></g></svg>