<svg width="96" height="97" xmlns="http://www.w3.org/2000/svg" xmlns:xlink="http://www.w3.org/1999/xlink" xml:space="preserve" overflow="hidden"><g transform="translate(-1024 -237)"><g><g><g><g><path d="M1068.9 310.4C1068.4 310.4 1067.8 310.3 1067.4 309.9 1066.6 309.2 1066.5 307.9 1067.2 307.1L1071.1 302.6C1071.8 301.8 1073.1 301.7 1073.9 302.4 1074.7 303.1 1074.8 304.4 1074.1 305.2L1070.2 309.7C1069.9 310.1 1069.4 310.3 1068.9 310.4Z" fill="#F8B143" fill-rule="nonzero" fill-opacity="1"/><path d="M1062.8 308.1C1062.1 308.2 1061.5 308 1060.9 307.5 1059.9 306.6 1059.8 305 1060.7 304L1065.3 298.7C1066.2 297.7 1067.8 297.6 1068.8 298.5 1069.8 299.4 1069.9 301 1069 302L1064.4 307.3C1064 307.8 1063.4 308.1 1062.8 308.1Z" fill="#F8B143" fill-rule="nonzero" fill-opacity="1"/><path d="M1056.5 304.4C1055.7 304.5 1054.9 304.2 1054.3 303.7 1053.1 302.6 1052.9 300.7 1054 299.5L1058.6 294.2C1059.7 293 1061.6 292.8 1062.8 293.9 1064 295 1064.2 296.9 1063.1 298.1L1058.5 303.4C1058 304 1057.2 304.4 1056.5 304.4Z" fill="#F8B143" fill-rule="nonzero" fill-opacity="1"/><path d="M1049.2 300.7C1048.4 300.8 1047.6 300.5 1047 300 1045.8 298.9 1045.6 297 1046.7 295.8L1052 289.8C1053.1 288.6 1055 288.4 1056.2 289.5 1057.4 290.6 1057.6 292.5 1056.5 293.7L1051.2 299.7C1050.6 300.3 1049.9 300.6 1049.2 300.7Z" fill="#F8B143" fill-rule="nonzero" fill-opacity="1"/><path d="M1028.6 278.7 1036.3 283.4C1037.2 284 1038.5 283.7 1039 282.7L1048.3 267.3C1048.9 266.4 1048.6 265.1 1047.6 264.6L1040 259.9 1028.6 278.7Z" fill="#F8B143" fill-rule="nonzero" fill-opacity="1"/><path d="M1093.4 291.8 1077.3 278 1076.2 277 1069.3 284.9C1068.3 286.1 1066.9 286.8 1065.3 286.9 1065.1 286.9 1064.9 286.9 1064.8 286.9 1063.3 286.9 1061.9 286.4 1060.9 285.4 1058.4 283.2 1058.2 279.4 1060.3 276.9L1066.2 270.1C1061.6 269.5 1055.7 271.9 1049.6 268.9L1040.9 283.3 1047.7 291.2 1050.3 288.2C1051.2 287.1 1052.6 286.5 1054.1 286.5 1055.3 286.5 1056.5 286.9 1057.4 287.7 1058.5 288.6 1059 289.9 1059.1 291.3 1059.6 291.1 1060.2 291 1060.8 291 1062 291 1063.2 291.4 1064.1 292.2 1065.2 293.2 1065.8 294.5 1065.8 295.9 1066.2 295.8 1066.7 295.7 1067.1 295.7 1068.2 295.7 1069.2 296.1 1070.1 296.8 1071 297.6 1071.5 298.7 1071.6 299.9 1071.9 299.8 1072.3 299.7 1072.7 299.7 1073.7 299.7 1074.6 300 1075.3 300.7 1076.1 301.4 1076.6 302.4 1076.7 303.4 1076.8 304.5 1076.4 305.5 1075.7 306.3L1072.3 310.2 1073.7 311.3C1074.4 311.7 1075.2 312 1076.1 311.9 1078.3 311.7 1079.9 309.8 1079.7 307.6 1079.7 307.6 1079.7 307.5 1079.7 307.5 1080 307.6 1080.4 307.6 1080.7 307.6 1082.9 307.4 1084.5 305.5 1084.3 303.3 1084.3 303.3 1084.3 303.2 1084.3 303.2 1084.6 303.3 1085 303.3 1085.3 303.3 1087.5 303.1 1089.1 301.2 1088.9 299 1088.9 298.8 1088.8 298.6 1088.8 298.4 1089.4 298.7 1090.1 298.9 1090.9 298.8 1093.1 298.6 1094.7 296.7 1094.5 294.5 1094.6 293.4 1094.1 292.5 1093.4 291.8Z" fill="#F8B143" fill-rule="nonzero" fill-opacity="1"/><path d="M1115.4 278.7 1107.7 283.4C1106.8 284 1105.5 283.7 1105 282.7L1095.7 267.3C1095.1 266.4 1095.4 265.1 1096.4 264.6L1104.1 259.9 1115.4 278.7Z" fill="#F8B143" fill-rule="nonzero" fill-opacity="1"/><path d="M1094.5 269.3C1086.2 272.3 1080.2 269.4 1073.5 268.1 1073.4 268.1 1073 268 1073 268 1071.8 267.9 1070.5 268.3 1069.6 269.3L1061.7 278.3C1060.2 280 1060.4 282.5 1062.1 283.9 1063 284.6 1064 285 1065.1 284.9 1066.1 284.8 1067.1 284.4 1067.8 283.5 1067.8 283.5 1076 274.1 1076 274.1L1094.7 290.2C1095.2 290.7 1095.4 290.9 1095.8 291.5L1103 283.2 1094.5 269.3Z" fill="#F8B143" fill-rule="nonzero" fill-opacity="1"/></g></g></g></g></g></svg>